<svg xmlns="http://www.w3.org/2000/svg" viewBox="0 0 48 48">
    <path fill="none" d="M0 0h48v48H0z"/>
    <path fill="#fff" d="M38.86 25.95c.08-.64.14-1.29.14-1.95s-.06-1.31-.14-1.95l4.23-3.31a1 1 0 0 0 .24-1.28l-4-6.93c-.25-.43-.77-.61-1.22-.43l-4.98 2.01a15.18 15.18 0 0 0-3.38-1.97L29 4.84c-.09-.47-.5-.84-1-.84h-8c-.5 0-.91.37-.99.84l-.75 5.3a14.8 14.8 0 0 0-3.38 1.97L9.9 10.1a1 1 0 0 0-1.22.43l-4 6.93a1 1 0 0 0 .24 1.28l4.22 3.31C9.06 22.69 9 23.34 9 24s.06 1.31.14 1.95l-4.22 3.31a1 1 0 0 0-.24 1.28l4 6.93c.25.43.77.61 1.22.43l4.98-2.01c1.03.79 2.16 1.46 3.38 1.97l.75 5.3c.08.47.49.84.99.84h8c.5 0 .91-.37.99-.84l.75-5.3a14.8 14.8 0 0 0 3.38-1.97l4.98 2.01a1 1 0 0 0 1.22-.43l4-6.93a1 1 0 0 0-.24-1.28l-4.22-3.31zM24 31a7 7 0 1 1-.01-13.99A7 7 0 0 1 24 31z"/>
</svg>