<svg width="48" height="48" viewBox="0 0 48 48" fill="none" xmlns="http://www.w3.org/2000/svg">
<path d="M41.5582 26.34C41.6527 25.572 41.7236 24.792 41.7236 24C41.7236 23.208 41.6527 22.428 41.5582 21.66L46.5579 17.688C46.7781 17.5086 46.9277 17.255 46.9798 16.9733C47.0318 16.6916 46.9828 16.4002 46.8416 16.152L42.1137 7.836C41.8182 7.32 41.2036 7.104 40.6717 7.32L34.7855 9.732C33.5598 8.77235 32.217 7.97775 30.7904 7.368L29.9039 1.008C29.7976 0.444 29.313 0 28.722 0H19.2662C18.6752 0 18.1906 0.444 18.0961 1.008L17.2096 7.368C15.7807 7.97305 14.4373 8.76799 13.2145 9.732L7.32833 7.32C7.06671 7.21866 6.77816 7.21491 6.51408 7.30941C6.25 7.40391 6.02753 7.59052 5.88632 7.836L1.15845 16.152C1.01724 16.4002 0.968215 16.6916 1.02025 16.9733C1.07228 17.255 1.22193 17.5086 1.44212 17.688L6.43003 21.66C6.33547 22.428 6.26455 23.208 6.26455 24C6.26455 24.792 6.33547 25.572 6.43003 26.34L1.44212 30.312C1.22193 30.4914 1.07228 30.745 1.02025 31.0267C0.968215 31.3084 1.01724 31.5998 1.15845 31.848L5.88632 40.164C6.18182 40.68 6.79644 40.896 7.32833 40.68L13.2145 38.268C14.432 39.216 15.7676 40.02 17.2096 40.632L18.0961 46.992C18.1906 47.556 18.6752 48 19.2662 48H28.722C29.313 48 29.7976 47.556 29.8921 46.992L30.7786 40.632C32.2074 40.027 33.5509 39.232 34.7736 38.268L40.6599 40.68C40.9215 40.7813 41.21 40.7851 41.4741 40.6906C41.7382 40.5961 41.9606 40.4095 42.1019 40.164L46.8297 31.848C46.9709 31.5998 47.02 31.3084 46.9679 31.0267C46.9159 30.745 46.7663 30.4914 46.5461 30.312L41.5582 26.34V26.34ZM23.9941 32.4C22.8821 32.4435 21.7728 32.2588 20.7328 31.8569C19.6927 31.4551 18.7432 30.8443 17.941 30.0613C17.1388 29.2782 16.5005 28.3388 16.0642 27.2995C15.6279 26.2601 15.4026 25.1421 15.4018 24.0122C15.401 22.8824 15.6247 21.764 16.0595 20.724C16.4944 19.684 17.1314 18.7438 17.9325 17.9595C18.7335 17.1753 19.6822 16.5632 20.7217 16.1598C21.7612 15.7564 22.8702 15.5701 23.9823 15.612C26.121 15.6925 28.1458 16.6114 29.6314 18.1755C31.117 19.7396 31.9478 21.8274 31.9494 24.0002C31.9509 26.1731 31.123 28.262 29.6396 29.8283C28.1562 31.3946 26.1327 32.3164 23.9941 32.4V32.4Z" fill="white"/>
</svg>
