<svg width="16" height="16" viewBox="0 0 16 16" fill="none" xmlns="http://www.w3.org/2000/svg">
<path d="M0 10.7366H3.55984L8.00964 15.2976V0.702395L3.55984 5.2634H0V10.7366ZM9.78956 4.3512V11.6488C10.4607 11.3207 11.0266 10.8031 11.4207 10.1567C11.8149 9.51037 12.0208 8.76217 12.0145 8C12.0103 7.24012 11.8001 6.49639 11.4071 5.85201C11.0142 5.20762 10.4541 4.68798 9.78956 4.3512ZM9.78956 1.87913C11.0765 2.27112 12.2054 3.07873 13.0082 4.18169C13.811 5.28464 14.2447 6.62391 14.2447 8C14.2447 9.37609 13.811 10.7154 13.0082 11.8183C12.2054 12.9213 11.0765 13.7289 9.78956 14.1209V16C11.5548 15.5829 13.13 14.5648 14.2579 13.1118C15.3859 11.6588 16 9.85683 16 8C16 6.14317 15.3859 4.34119 14.2579 2.88821C13.13 1.43524 11.5548 0.417096 9.78956 0V1.87913V1.87913Z" fill="white"/>
</svg>
